# xmcd
#
# Track frame offsets: 
#        150
#        18197
#        25793
#        57620
#        90687
#        120114
#        128160
#        147350
#        152067
#
# Disc length: 2430 seconds
#
# Revision: 8
# Processed by: cddbd v1.5.2PL0 Copyright (c) Steve Scherf et al.
# Submitted via: ExactAudioCopy v0.95a4
#
DISCID=6c097c09
DTITLE=Stanley Clarke - Stanley Clarke
DYEAR=1974
DGENRE=Jazz
TTITLE0=Vulcan Princess
TTITLE1=Yesterday Princess
TTITLE2=Lopsy Lu
TTITLE3=Power
TTITLE4=Spanish Phases for Strings and Bass
TTITLE5=Life Suite - Part I
TTITLE6=Life Suite - Part II
TTITLE7=Life Suite - Part III
TTITLE8=Life Suite - Part IV
EXTD=(C) 1974 EPIC EPC 468218 2 YEAR: 1974
EXTT0=
EXTT1=
EXTT2=
EXTT3=
EXTT4=
EXTT5=
EXTT6=
EXTT7=
EXTT8=
PLAYORDER=
